<?xml version="1.0" encoding="UTF-8"?><svg id="Layer_1" xmlns="http://www.w3.org/2000/svg" width="551.73" height="472.96" viewBox="0 0 551.73 472.96"><defs><style>.cls-1{fill:#f58220;}</style></defs><path class="cls-1" d="M158.18,236.7L18.12,376.74c-23.12,22.98-24.25,59.15-2.61,80.79,21.52,21.52,57.76,20.42,80.82-2.58l177.42-177.48h.01c23.18-23.06,24.31-59.27,2.73-80.85-.56-.62-1.25-.95-1.81-1.42-.71-.83-1.28-1.75-1.99-2.49L97.55,17.63C74.85-5.05,38.94-5.97,17.3,15.61c-21.63,21.6-20.68,57.49,2.02,80.25l138.86,140.84Z"/><path class="cls-1" d="M417.97,236.7l-140.06,140.04c-23.12,22.98-24.25,59.15-2.61,80.79s57.76,20.42,80.82-2.58l177.42-177.48h.01c23.18-23.06,24.31-59.27,2.73-80.85-.56-.62-1.25-.95-1.81-1.42-.71-.83-1.28-1.75-1.99-2.49L357.34,17.63c-22.7-22.68-58.61-23.6-80.25-2.02-21.63,21.6-20.68,57.49,2.02,80.25l138.86,140.84h0Z"/></svg>