<?xml version="1.0" encoding="UTF-8"?>
<svg id="Layer_1" xmlns="http://www.w3.org/2000/svg" version="1.1" viewBox="0 0 1158.49 958.49">
  <!-- Generator: Adobe Illustrator 30.0.0, SVG Export Plug-In . SVG Version: 2.1.1 Build 123)  -->
  <defs>
    <style>
      .st0 {
        font-size: 34px;
      }

      .st0, .st1 {
        font-family: HelveticaNeue-Italic, 'Helvetica Neue';
        font-style: italic;
      }

      .st2 {
        font-size: 31.64px;
      }

      .st2, .st3 {
        font-family: HelveticaNeue, 'Helvetica Neue';
      }

      .st4 {
        fill: #fff;
      }

      .st1 {
        font-size: 26px;
      }

      .st5, .st6 {
        fill: none;
        stroke: #000;
        stroke-miterlimit: 10;
      }

      .st3 {
        font-size: 48px;
      }

      .st6 {
        stroke-width: 3px;
      }
    </style>
  </defs>
  <g>
    <rect class="st4" x="294.84" y="421.25" width="93.34" height="151.83"/>
    <path d="M387.68,421.75v150.83h-92.34v-150.83h92.34M388.68,420.75h-94.34v152.83h94.34v-152.83h0Z"/>
  </g>
  <g>
    <rect class="st4" x="645.78" y="421.25" width="93.34" height="151.83"/>
    <path d="M738.62,421.75v150.83h-92.34v-150.83h92.34M739.62,420.75h-94.34v152.83h94.34v-152.83h0Z"/>
  </g>
  <g>
    <rect class="st4" x="996.73" y="421.25" width="93.34" height="151.83"/>
    <path d="M1089.57,421.75v150.83h-92.34v-150.83h92.34M1090.57,420.75h-94.34v152.83h94.34v-152.83h0Z"/>
  </g>
  <g>
    <rect class="st4" x="294.84" y="594.84" width="795.23" height="80.13"/>
    <path d="M1089.57,595.34v79.13H295.34v-79.13h794.23M1090.57,594.34H294.34v81.13h796.23v-81.13h0Z"/>
  </g>
  <text class="st3" transform="translate(545.98 652.38)"><tspan x="0" y="0">Docker Engine</tspan></text>
  <text class="st3" transform="translate(207.39 377.44)"><tspan x="0" y="0">PHPMyadmin</tspan></text>
  <text class="st0" transform="translate(120.66 691.55)"><tspan x="0" y="0">Localhost</tspan></text>
  <text class="st1" transform="translate(755.69 574.98)"><tspan x="0" y="0">host.docker.internal</tspan></text>
  <text class="st3" transform="translate(621.91 377.44)"><tspan x="0" y="0">Python</tspan></text>
  <text class="st3" transform="translate(938.79 377.44)"><tspan x="0" y="0">MariaDb</tspan></text>
  <g>
    <path class="st6" d="M322.64,290.57s198.36-88.68,375.08-88.68c136.55,0,259.05,57.55,301.53,79.92"/>
    <path d="M1015.09,290.57c-8.99-1.29-20.86-1.6-29.34.29l11.35-10.07,2.28-15c3.03,8.15,9.74,17.93,15.72,24.78Z"/>
  </g>
  <g>
    <path class="st6" d="M94.98,803.45s-1.27-111.63,40.74-187.05c29.27-52.54,81.37-85.99,107.69-100.36"/>
    <path d="M259.6,507.92c-6.15,6.69-13.1,16.31-16.33,24.38l-1.9-15.05-11.09-10.35c8.43,2.1,20.3,2.09,29.32,1.02Z"/>
  </g>
  <g>
    <path class="st6" d="M762.22,470.31s59.63,69.84,117.94,75.15c39.3,3.58,77.94-24.69,97.45-41.83"/>
    <path d="M990.69,491.12c-4.05,8.13-8.07,19.3-8.94,27.95l-6-13.94-13.52-6.87c8.69-.32,20.09-3.62,28.46-7.14Z"/>
  </g>
  <g>
    <path class="st6" d="M668.87,334.91s83.93-88.68,158.71-88.68c53.53,0,101.96,49.4,123.09,74.46"/>
    <path d="M961.86,334.91c-7.77-4.7-18.57-9.63-27.12-11.2l14.38-4.83,7.96-12.91c-.4,8.68,1.96,20.32,4.78,28.95Z"/>
  </g>
  <g>
    <g>
      <rect class="st4" x="706.88" y="23.83" width="216.97" height="211.26"/>
      <path d="M923.35,24.33v210.26h-215.97V24.33h215.97M924.35,23.33h-217.97v212.26h217.97V23.33h0Z"/>
    </g>
    <text class="st2" transform="translate(802.04 80.86) scale(.93 1)"><tspan x="0" y="0">IP</tspan><tspan x="-27.56" y="37.97">Naam</tspan><tspan x="-75.87" y="75.94">Wachtwoord</tspan><tspan x="-73.58" y="113.9">Portnummer</tspan></text>
  </g>
  <rect class="st5" x="171.7" y="718.33" width="216.98" height="152.83"/>
  <polygon class="st5" points="262.26 908.89 45.28 908.89 171.7 871.16 388.68 871.16 262.26 908.89"/>
</svg>