<?xml version="1.0" encoding="UTF-8"?>
<svg id="Laag_1" xmlns="http://www.w3.org/2000/svg" version="1.1" viewBox="0 0 747.24 575">
  <!-- Generator: Adobe Illustrator 29.7.1, SVG Export Plug-In . SVG Version: 2.1.1 Build 8)  -->
  <defs>
    <style>
      .st0 {
        fill: #f58220;
      }
    </style>
  </defs>
  <path class="st0" d="M716.6,30.65c-20.43-20.43-52.55-30.65-96.37-30.65H127C83.41-.22,51.35,9.88,30.81,30.3,10.27,50.72,0,82.95,0,127v321.68c0,43.13,10.27,74.96,30.81,95.51,20.54,20.55,52.6,30.82,96.19,30.81h493.23c43.82,0,75.94-10.27,96.37-30.81,20.43-20.54,30.64-52.6,30.64-96.19V127c0-43.81-10.21-75.93-30.64-96.35ZM657.6,311.71c0,14.38-7.19,21.57-21.57,21.57h-245.48v22.25c0,31.27,6.11,52.94,18.32,65,12.21,12.06,34.07,18.11,65.56,18.15h56.14c27.15,0,46.89-3.2,59.22-9.59,12.33-6.39,19.96-17.45,22.9-33.16,1.6-6.85,4.11-11.99,7.53-15.41,3.42-3.42,8.58-5.13,15.47-5.13,7.07,0,12.49,1.88,16.26,5.65s5.09,9.3,3.94,16.59c-3.66,28.54-15.81,49.71-36.46,63.51s-50.26,20.7-88.83,20.71h-56.17c-43.6,0-75.67-10.27-96.2-30.81-20.53-20.54-30.8-52.38-30.81-95.51v-78c0-44.27,10.27-76.62,30.81-97.05,20.54-20.43,52.61-30.43,96.2-30h56.14c43.81,0,75.93,10.21,96.36,30.64,20.43,20.43,30.64,52.55,30.64,96.36l.03,34.23Z"/>
  <path class="st0" d="M474.43,193.62c-31.5-.46-53.35,5.36-65.56,17.45-12.21,12.09-18.31,34.23-18.32,66.41v12.67h223.89v-12.67c0-31.72-6.05-53.63-18.15-65.73s-34.01-18.14-65.72-18.13h-56.14Z"/>
</svg>